# xmcd
#
# Track frame offsets:
#	150
#	7372
#	20450
#	39860
#	54175
#	66962
#	82867
#	100587
#	125352
#	139765
#	156857
#
# Disc length: 2282 seconds
#
# Revision: 1
# Processed by: cddbd v1.4PL0 Copyright (c) Steve Scherf et al.
# Submitted via: audiograbber 1.81.02
#
DISCID=8108e80b
DTITLE=Lee Fields - Let's Get A Groove On
DYEAR=1900
DGENRE=Soul
TTITLE0=Intro By Mr Fields
TTITLE1=Let's Get A Groove On
TTITLE2=Watch That Man
TTITLE3=Hey Sallie Mae (Get Off My Feet)
TTITLE4=Let A Man Do What He Wanna Do
TTITLE5=All By Myself
TTITLE6=Put It On Me
TTITLE7=Take It Or Leave It
TTITLE8=Steam Train
TTITLE9=I'm A Millionaire
TTITLE10=Bad, Bad, Bad
EXTD=
EXTT0=
EXTT1=
EXTT2=
EXTT3=
EXTT4=
EXTT5=
EXTT6=
EXTT7=
EXTT8=
EXTT9=
EXTT10=
PLAYORDER=
